<svg width="34" height="28" viewBox="0 0 34 28" fill="none" xmlns="http://www.w3.org/2000/svg">
<path fill-rule="evenodd" clip-rule="evenodd" d="M30.172 3.12277C31.238 3.12277 32.1748 3.54566 32.8532 4.26133C33.5639 4.94446 33.9838 5.88783 33.9838 6.96133V23.1613C33.9838 24.2023 33.5316 25.1782 32.8532 25.8613C32.1748 26.577 31.238 26.9999 30.172 26.9999H3.81188C2.77815 26.9999 1.80903 26.5445 1.13064 25.8613C0.419953 25.1782 0 24.2348 0 23.1613V6.96133C0 5.92036 0.452257 4.94446 1.13064 4.26133C1.80903 3.54566 2.74584 3.12277 3.81188 3.12277H9.14204V3.05771C9.14204 2.24446 9.46508 1.49627 10.0143 0.943255C10.5634 0.390243 11.3064 0.0649414 12.1463 0.0649414H21.8375C22.6451 0.0649414 23.3881 0.390243 23.9373 0.943255C24.4865 1.46374 24.8095 2.24446 24.8095 3.05771V3.12277H30.172ZM32.2717 23.1613H32.304V6.96133C32.304 6.37578 32.0779 5.8553 31.6903 5.46494C31.3026 5.07458 30.7857 4.84687 30.2043 4.84687H23.9696C23.485 4.84687 23.0974 4.45651 23.0974 3.96856V3.02518C23.0974 2.66735 22.9682 2.34205 22.742 2.11434C22.5159 1.88663 22.1929 1.75651 21.8375 1.75651H12.1786C11.8233 1.75651 11.5002 1.88663 11.2741 2.11434C11.048 2.34205 10.9188 2.66735 10.9188 3.02518V3.96856C10.9188 4.45651 10.5311 4.84687 10.0466 4.84687H3.81188C3.2304 4.84687 2.71354 5.07458 2.32589 5.46494C1.93824 5.8553 1.71211 6.37578 1.71211 6.96133V23.1613C1.71211 23.7469 1.93824 24.2674 2.32589 24.6577C2.71354 25.0481 3.2304 25.2758 3.81188 25.2758H30.172C30.7534 25.2758 31.2703 25.0481 31.658 24.6577C32.0456 24.2674 32.2717 23.7469 32.2717 23.1613Z" fill="#20C14D"/>
<path fill-rule="evenodd" clip-rule="evenodd" d="M11.3708 9.40125C12.7922 7.96993 14.795 7.05908 16.9917 7.05908C19.1884 7.05908 21.1912 7.96993 22.6126 9.40125C24.034 10.8326 24.9385 12.8494 24.9385 15.0615C24.9385 17.2735 24.0663 19.2579 22.6126 20.7217C21.1912 22.1531 19.1884 23.0639 16.9917 23.0639C14.795 23.0639 12.8245 22.1856 11.3708 20.7217C9.94943 19.2904 9.04492 17.2735 9.04492 15.0615C9.04492 12.8494 9.91713 10.8651 11.3708 9.40125ZM16.9917 21.3398C18.7038 21.3398 20.2544 20.6241 21.3851 19.5181C22.5157 18.3796 23.2264 16.8181 23.1941 15.094C23.1941 13.3699 22.5157 11.8085 21.3851 10.6699C20.2544 9.5639 18.7038 8.84824 16.9917 8.84824C15.2796 8.84824 13.729 9.53137 12.5984 10.6699C11.5 11.8085 10.7893 13.3699 10.7893 15.094C10.7893 16.8181 11.4677 18.3796 12.5984 19.5181C13.729 20.6241 15.2796 21.3398 16.9917 21.3398Z" fill="#20C14D"/>
<ellipse cx="28.4921" cy="8.62034" rx="1.5829" ry="1.59398" fill="#20C14D"/>
</svg>
