<svg width="52" height="52" viewBox="0 0 52 52" fill="none" xmlns="http://www.w3.org/2000/svg">
<path d="M26 0C11.6642 0 0 11.6642 0 26C0 40.3358 11.6642 52 26 52C40.3358 52 52 40.3358 52 26C52 11.6642 40.3358 0 26 0Z" fill="white"/>
<path d="M40.5313 19.1579L23.9147 35.6441C22.9373 36.6215 21.3734 36.6867 20.3308 35.7092L11.5338 27.6942C10.4912 26.7168 10.426 25.0877 11.3383 24.0451C12.3157 23.0025 13.9448 22.9373 14.9874 23.9148L21.9599 30.3007L36.817 15.4436C37.8596 14.401 39.4887 14.401 40.5313 15.4436C41.5739 16.4862 41.5739 18.1153 40.5313 19.1579Z" fill="#20C14D"/>
</svg>
