<svg width="70" height="149" viewBox="0 0 70 149" fill="none" xmlns="http://www.w3.org/2000/svg">
<ellipse cx="3.21273" cy="2.40323" rx="2.40426" ry="2.40323" fill="#DADADA"/>
<ellipse cx="3.21273" cy="14.4193" rx="2.40426" ry="2.40323" fill="#DADADA"/>
<ellipse cx="3.21273" cy="26.4355" rx="2.40426" ry="2.40323" fill="#DADADA"/>
<ellipse cx="3.21273" cy="38.4516" rx="2.40426" ry="2.40323" fill="#DADADA"/>
<ellipse cx="3.21273" cy="50.4677" rx="2.40426" ry="2.40323" fill="#DADADA"/>
<ellipse cx="3.21273" cy="62.4838" rx="2.40426" ry="2.40323" fill="#DADADA"/>
<ellipse cx="3.21273" cy="62.4838" rx="2.40426" ry="2.40323" fill="#DADADA"/>
<ellipse cx="3.21273" cy="50.4677" rx="2.40426" ry="2.40323" fill="#DADADA"/>
<ellipse cx="3.21273" cy="74.4999" rx="2.40426" ry="2.40323" fill="#DADADA"/>
<ellipse cx="3.21273" cy="86.516" rx="2.40426" ry="2.40323" fill="#DADADA"/>
<ellipse cx="3.21273" cy="98.5321" rx="2.40426" ry="2.40323" fill="#DADADA"/>
<ellipse cx="3.21273" cy="110.548" rx="2.40426" ry="2.40323" fill="#DADADA"/>
<ellipse cx="3.21273" cy="122.564" rx="2.40426" ry="2.40323" fill="#DADADA"/>
<ellipse cx="3.21273" cy="134.58" rx="2.40426" ry="2.40323" fill="#DADADA"/>
<ellipse cx="3.21273" cy="134.58" rx="2.40426" ry="2.40323" fill="#DADADA"/>
<ellipse cx="3.21273" cy="146.597" rx="2.40426" ry="2.40323" fill="#DADADA"/>
<ellipse cx="15.2341" cy="2.40323" rx="2.40426" ry="2.40323" fill="#DADADA"/>
<ellipse cx="15.2341" cy="14.4193" rx="2.40426" ry="2.40323" fill="#DADADA"/>
<ellipse cx="15.2341" cy="26.4355" rx="2.40426" ry="2.40323" fill="#DADADA"/>
<ellipse cx="15.2341" cy="38.4516" rx="2.40426" ry="2.40323" fill="#DADADA"/>
<ellipse cx="15.2341" cy="50.4677" rx="2.40426" ry="2.40323" fill="#DADADA"/>
<ellipse cx="15.2341" cy="62.4838" rx="2.40426" ry="2.40323" fill="#DADADA"/>
<ellipse cx="15.2341" cy="62.4838" rx="2.40426" ry="2.40323" fill="#DADADA"/>
<ellipse cx="15.2341" cy="50.4677" rx="2.40426" ry="2.40323" fill="#DADADA"/>
<ellipse cx="15.2341" cy="74.4999" rx="2.40426" ry="2.40323" fill="#DADADA"/>
<ellipse cx="15.2341" cy="86.516" rx="2.40426" ry="2.40323" fill="#DADADA"/>
<ellipse cx="15.2341" cy="98.5321" rx="2.40426" ry="2.40323" fill="#DADADA"/>
<ellipse cx="15.2341" cy="110.548" rx="2.40426" ry="2.40323" fill="#DADADA"/>
<ellipse cx="15.2341" cy="122.564" rx="2.40426" ry="2.40323" fill="#DADADA"/>
<ellipse cx="15.2341" cy="134.58" rx="2.40426" ry="2.40323" fill="#DADADA"/>
<ellipse cx="15.2341" cy="134.58" rx="2.40426" ry="2.40323" fill="#DADADA"/>
<ellipse cx="15.2341" cy="146.597" rx="2.40426" ry="2.40323" fill="#DADADA"/>
<ellipse cx="27.2553" cy="2.40323" rx="2.40426" ry="2.40323" fill="#DADADA"/>
<ellipse cx="27.2553" cy="14.4193" rx="2.40426" ry="2.40323" fill="#DADADA"/>
<ellipse cx="27.2553" cy="26.4355" rx="2.40426" ry="2.40323" fill="#DADADA"/>
<ellipse cx="27.2553" cy="38.4516" rx="2.40426" ry="2.40323" fill="#DADADA"/>
<ellipse cx="27.2553" cy="50.4677" rx="2.40426" ry="2.40323" fill="#DADADA"/>
<ellipse cx="27.2553" cy="62.4838" rx="2.40426" ry="2.40323" fill="#DADADA"/>
<ellipse cx="27.2553" cy="62.4838" rx="2.40426" ry="2.40323" fill="#DADADA"/>
<ellipse cx="27.2553" cy="50.4677" rx="2.40426" ry="2.40323" fill="#DADADA"/>
<ellipse cx="27.2553" cy="74.4999" rx="2.40426" ry="2.40323" fill="#DADADA"/>
<ellipse cx="27.2553" cy="86.516" rx="2.40426" ry="2.40323" fill="#DADADA"/>
<ellipse cx="27.2553" cy="98.5321" rx="2.40426" ry="2.40323" fill="#DADADA"/>
<ellipse cx="27.2553" cy="110.548" rx="2.40426" ry="2.40323" fill="#DADADA"/>
<ellipse cx="27.2553" cy="122.564" rx="2.40426" ry="2.40323" fill="#DADADA"/>
<ellipse cx="27.2553" cy="134.58" rx="2.40426" ry="2.40323" fill="#DADADA"/>
<ellipse cx="27.2553" cy="134.58" rx="2.40426" ry="2.40323" fill="#DADADA"/>
<ellipse cx="27.2553" cy="146.597" rx="2.40426" ry="2.40323" fill="#DADADA"/>
<ellipse cx="39.2766" cy="2.40323" rx="2.40426" ry="2.40323" fill="#DADADA"/>
<ellipse cx="39.2766" cy="14.4193" rx="2.40426" ry="2.40323" fill="#DADADA"/>
<ellipse cx="39.2766" cy="26.4355" rx="2.40426" ry="2.40323" fill="#DADADA"/>
<ellipse cx="39.2766" cy="38.4516" rx="2.40426" ry="2.40323" fill="#DADADA"/>
<ellipse cx="39.2766" cy="50.4677" rx="2.40426" ry="2.40323" fill="#DADADA"/>
<ellipse cx="39.2766" cy="62.4838" rx="2.40426" ry="2.40323" fill="#DADADA"/>
<ellipse cx="39.2766" cy="62.4838" rx="2.40426" ry="2.40323" fill="#DADADA"/>
<ellipse cx="39.2766" cy="50.4677" rx="2.40426" ry="2.40323" fill="#DADADA"/>
<ellipse cx="39.2766" cy="74.4999" rx="2.40426" ry="2.40323" fill="#DADADA"/>
<ellipse cx="39.2766" cy="86.516" rx="2.40426" ry="2.40323" fill="#DADADA"/>
<ellipse cx="39.2766" cy="98.5321" rx="2.40426" ry="2.40323" fill="#DADADA"/>
<ellipse cx="39.2766" cy="110.548" rx="2.40426" ry="2.40323" fill="#DADADA"/>
<ellipse cx="39.2766" cy="122.564" rx="2.40426" ry="2.40323" fill="#DADADA"/>
<ellipse cx="39.2766" cy="134.58" rx="2.40426" ry="2.40323" fill="#DADADA"/>
<ellipse cx="39.2766" cy="134.58" rx="2.40426" ry="2.40323" fill="#DADADA"/>
<ellipse cx="39.2766" cy="146.597" rx="2.40426" ry="2.40323" fill="#DADADA"/>
<ellipse cx="51.2978" cy="2.40323" rx="2.40426" ry="2.40323" fill="#DADADA"/>
<ellipse cx="51.2978" cy="14.4193" rx="2.40426" ry="2.40323" fill="#DADADA"/>
<ellipse cx="51.2978" cy="26.4355" rx="2.40426" ry="2.40323" fill="#DADADA"/>
<ellipse cx="51.2978" cy="38.4516" rx="2.40426" ry="2.40323" fill="#DADADA"/>
<ellipse cx="51.2978" cy="50.4677" rx="2.40426" ry="2.40323" fill="#DADADA"/>
<ellipse cx="51.2978" cy="62.4838" rx="2.40426" ry="2.40323" fill="#DADADA"/>
<ellipse cx="51.2978" cy="62.4838" rx="2.40426" ry="2.40323" fill="#DADADA"/>
<ellipse cx="51.2978" cy="50.4677" rx="2.40426" ry="2.40323" fill="#DADADA"/>
<ellipse cx="51.2978" cy="74.4999" rx="2.40426" ry="2.40323" fill="#DADADA"/>
<ellipse cx="51.2978" cy="86.516" rx="2.40426" ry="2.40323" fill="#DADADA"/>
<ellipse cx="51.2978" cy="98.5321" rx="2.40426" ry="2.40323" fill="#DADADA"/>
<ellipse cx="51.2978" cy="110.548" rx="2.40426" ry="2.40323" fill="#DADADA"/>
<ellipse cx="51.2978" cy="122.564" rx="2.40426" ry="2.40323" fill="#DADADA"/>
<ellipse cx="51.2978" cy="134.58" rx="2.40426" ry="2.40323" fill="#DADADA"/>
<ellipse cx="51.2978" cy="134.58" rx="2.40426" ry="2.40323" fill="#DADADA"/>
<ellipse cx="51.2978" cy="146.597" rx="2.40426" ry="2.40323" fill="#DADADA"/>
<ellipse cx="63.3192" cy="2.40323" rx="2.40426" ry="2.40323" fill="#DADADA"/>
<ellipse cx="63.3192" cy="14.4193" rx="2.40426" ry="2.40323" fill="#DADADA"/>
<ellipse cx="63.3192" cy="26.4355" rx="2.40426" ry="2.40323" fill="#DADADA"/>
<ellipse cx="63.3192" cy="38.4516" rx="2.40426" ry="2.40323" fill="#DADADA"/>
<ellipse cx="63.3192" cy="50.4677" rx="2.40426" ry="2.40323" fill="#DADADA"/>
<ellipse cx="63.3192" cy="62.4838" rx="2.40426" ry="2.40323" fill="#DADADA"/>
<ellipse cx="63.3192" cy="62.4838" rx="2.40426" ry="2.40323" fill="#DADADA"/>
<ellipse cx="63.3192" cy="50.4677" rx="2.40426" ry="2.40323" fill="#DADADA"/>
<ellipse cx="63.3192" cy="74.4999" rx="2.40426" ry="2.40323" fill="#DADADA"/>
<ellipse cx="63.3192" cy="86.516" rx="2.40426" ry="2.40323" fill="#DADADA"/>
<ellipse cx="63.3192" cy="98.5321" rx="2.40426" ry="2.40323" fill="#DADADA"/>
<ellipse cx="63.3192" cy="110.548" rx="2.40426" ry="2.40323" fill="#DADADA"/>
<ellipse cx="63.3192" cy="122.564" rx="2.40426" ry="2.40323" fill="#DADADA"/>
<ellipse cx="63.3192" cy="134.58" rx="2.40426" ry="2.40323" fill="#DADADA"/>
<ellipse cx="63.3192" cy="134.58" rx="2.40426" ry="2.40323" fill="#DADADA"/>
<ellipse cx="63.3192" cy="146.597" rx="2.40426" ry="2.40323" fill="#DADADA"/>
</svg>
