<svg width="609" height="635" viewBox="0 0 609 635" fill="none" xmlns="http://www.w3.org/2000/svg">
<ellipse cx="307.5" cy="595" rx="225.5" ry="40" fill="#3F3D56"/>
<path d="M119 219C119 161.01 204.29 114 309.5 114C414.71 114 500 161.01 500 219" stroke="#3F3D56" stroke-width="2"/>
<path d="M370 155H214.994C184.335 103.333 184.335 51.6667 214.994 0H370C327.133 51.6667 327.133 103.333 370 155Z" fill="#E6E6E6"/>
<rect x="237" y="18" width="87" height="11" fill="#20C14D"/>
<rect x="209" y="55" width="116" height="4" fill="white"/>
<rect x="209" y="74" width="116" height="4" fill="white"/>
<rect x="209" y="93" width="116" height="4" fill="white"/>
<path d="M432 497C432 546.193 462.861 586 501 586L432 497Z" fill="#3F3D56"/>
<path d="M500 586C500 536.254 534.439 496 577 496L500 586Z" fill="#20C14D"/>
<path d="M456 502C456 548.43 475.68 586 500 586L456 502Z" fill="#20C14D"/>
<path d="M500 586C500 522.436 539.807 471 589 471L500 586Z" fill="#3F3D56"/>
<path d="M486 587.148C486 587.148 495.675 586.854 498.591 584.81C501.506 582.765 513.473 580.324 514.196 583.603C514.92 586.882 528.736 599.91 517.813 599.997C506.89 600.084 492.433 598.322 489.523 596.576C486.613 594.831 486 587.148 486 587.148Z" fill="#A8A8A8"/>
<path opacity="0.2" d="M518.01 598.844C507.086 598.931 492.628 597.151 489.718 595.387C487.502 594.044 486.619 589.224 486.323 587C486.118 587.009 486 587.013 486 587.013C486 587.013 486.613 594.776 489.523 596.54C492.434 598.304 506.891 600.085 517.815 599.997C520.968 599.972 522.057 598.855 521.998 597.202C521.56 598.201 520.357 598.825 518.01 598.844Z" fill="black"/>
<path d="M274.986 120.87C275.876 121.277 276.946 120.67 277.471 119.844C279.469 116.701 275.791 112.647 276.587 109.009C277.225 106.095 280.541 104.365 281.219 101.46C281.878 98.6369 279.848 95.455 281.22 92.9007C282.295 90.8996 284.98 90.3729 287.226 90.7235C289.473 91.0741 291.606 92.0604 293.875 92.1986C296.9 92.3828 299.783 91.0531 302.74 90.3944C305.697 89.7356 309.304 89.9935 311.044 92.471C313.278 95.6521 311.012 100.082 311.79 103.889C312.407 106.912 314.941 109.415 314.996 112.5C315.015 113.596 312.129 112.713 312.282 113.799C312.436 114.885 311.072 113.929 312.162 113.8C313.076 113.576 313.74 112.788 313.803 111.85C313.933 110.946 315.635 110.644 315.615 109.731C315.569 107.59 319.444 109.034 320.083 106.989C321.55 102.224 321.249 97.0903 319.234 92.5287C318.365 90.5813 317.182 88.7383 316.762 86.6478C316.193 83.8094 317.089 80.7623 316.15 78.0236C314.884 74.3329 310.697 72.4514 306.81 72.0693C302.922 71.6872 298.972 72.3712 295.106 71.8077C291.644 71.3029 288.291 69.8042 284.799 70.0214C280.608 70.2819 276.961 72.9785 274.056 76.0064C271.151 79.0342 268.687 82.5166 265.388 85.1104C264.378 85.8046 263.446 86.6058 262.608 87.5001C260.928 89.5452 260.758 92.4586 261.225 95.0626C261.692 97.6666 262.71 100.15 263.139 102.761C263.543 105.214 263.418 107.721 263.592 110.201C263.766 112.681 264.281 115.236 265.777 117.223C266.99 118.869 268.896 119.863 270.941 119.918C271.64 119.934 272.231 119.307 272.937 119.47C273.819 119.675 274.203 120.511 274.986 120.87Z" fill="#2F2E41"/>
<path d="M244 302.875L246.666 319L252 311.874L248.952 301L244 302.875Z" fill="#A0616A"/>
<path d="M247.209 182L243.096 192.83C243.096 192.83 239 247.991 239 252.093C239 256.194 241.985 308.763 243.104 311C243.104 311 247.955 303.916 254.299 305.035C260.642 306.153 258.03 286.393 258.03 286.393L264 237.552L262.881 212.945L247.209 182Z" fill="#575A89"/>
<path opacity="0.1" d="M247.209 182L243.096 192.83C243.096 192.83 239 247.991 239 252.093C239 256.194 241.985 308.763 243.104 311C243.104 311 247.955 303.916 254.299 305.035C260.642 306.153 258.03 286.393 258.03 286.393L264 237.552L262.881 212.945L247.209 182Z" fill="black"/>
<path d="M273 121.583C273 121.583 285.375 152.742 278.25 158.677C271.125 164.611 318 148.661 318 148.661L316.875 144.581C316.875 144.581 301.5 138.646 309 121.583C316.5 104.521 273 121.583 273 121.583Z" fill="#A0616A"/>
<path opacity="0.1" d="M273 121.583C273 121.583 285.375 152.742 278.25 158.677C271.125 164.611 318 148.661 318 148.661L316.875 144.581C316.875 144.581 301.5 138.646 309 121.583C316.5 104.521 273 121.583 273 121.583Z" fill="black"/>
<path d="M253.888 540.296C253.888 540.296 248.697 538.796 245.731 542.547C242.765 546.298 231.641 555.675 231.641 555.675C231.641 555.675 210.136 553.425 207.17 564.303C204.204 575.181 240.911 575.181 249.81 572.555C258.708 569.929 260.562 572.555 260.562 572.555C260.562 572.555 288 574.806 288 570.304C288 565.803 285.405 550.424 285.405 550.424L253.888 540.296Z" fill="#575A89"/>
<path d="M341.765 565.661L336.893 580.537C336.893 580.537 322.276 600.619 330.521 604.71C338.767 608.8 368 612.891 368 602.106V581.652C368 581.652 365.002 567.149 362.003 565.661C359.005 564.174 341.765 565.661 341.765 565.661Z" fill="#575A89"/>
<path d="M259.319 297.54C259.319 297.54 243.635 311.196 244.007 313.06C244.379 314.924 251.819 434.59 251.819 434.59L255.911 512.13C255.911 512.13 250.703 530.397 253.307 534.498C255.911 538.599 249.587 539.717 249.587 539.717C249.587 539.717 276.371 563.948 287.531 553.51L297.947 418.187L326.591 516.604C326.591 516.604 331.427 568.795 337.007 568.795C342.587 568.795 365.279 569.913 364.907 566.931C364.535 563.948 366.023 541.208 363.419 527.788C360.815 514.367 343.331 408.122 343.331 408.122C343.331 408.122 341.828 317.039 345.741 308.526C349.655 300.012 343.703 291.065 343.703 291.065L317.663 281L286.415 284.728L259.319 297.54Z" fill="#2F2E41"/>
<circle cx="291" cy="108" r="26" fill="#A0616A"/>
<path d="M354 164.419C351.391 156.993 345.251 151.38 337.654 149.473C330.16 147.577 322.831 145.078 315.735 142C315.735 142 289.359 154.704 284.158 154.704C278.957 154.704 278.957 151.341 278.957 151.341C278.957 151.341 265.583 165.54 258.524 167.035C251.466 168.529 241.064 186.091 244.779 195.806C247.302 202.034 250.955 207.736 255.552 212.62C255.552 212.62 254.066 264.931 258.896 274.646C258.896 274.646 247.008 297.438 258.153 298.933C269.298 300.428 312.02 295.197 319.45 300.428C326.88 305.659 340.626 299.307 342.483 306.406C344.341 313.505 348.427 315 348.427 315C348.427 315 354.743 304.911 351.028 298.933C347.313 292.955 354 164.419 354 164.419Z" fill="#575A89"/>
<path d="M326.066 305L320 308.8C320 308.8 326.445 331.219 329.099 331.979C331.753 332.739 338 312.809 338 312.809L326.066 305Z" fill="#A0616A"/>
<path d="M269.986 117.87C270.876 118.277 271.946 117.67 272.471 116.844C274.469 113.701 270.791 109.647 271.587 106.009C272.225 103.095 275.541 101.365 276.219 98.4599C276.878 95.6369 274.848 92.455 276.22 89.9007C277.295 87.8995 279.98 87.3729 282.226 87.7235C284.473 88.0741 286.606 89.0604 288.875 89.1986C291.9 89.3827 294.782 88.0531 297.74 87.3943C300.697 86.7356 304.304 86.9935 306.044 89.471C308.278 92.6521 306.012 97.0818 306.79 100.889C307.407 103.912 314.444 106.034 315.083 103.989C316.55 99.2242 316.249 94.0903 314.234 89.5287C313.365 87.5813 312.182 85.7383 311.762 83.6478C311.193 80.8094 312.089 77.7623 311.15 75.0236C309.884 71.3329 305.697 69.4514 301.81 69.0693C297.922 68.6872 293.972 69.3712 290.106 68.8077C286.644 68.3029 283.291 66.8042 279.799 67.0214C275.608 67.2819 271.961 69.9785 269.056 73.0063C266.151 76.0341 263.687 79.5166 260.388 82.1104C259.378 82.8046 258.446 83.6058 257.608 84.5001C255.928 86.5452 255.758 89.4586 256.225 92.0626C256.692 94.6666 257.71 97.1505 258.139 99.761C258.543 102.214 258.418 104.721 258.592 107.201C258.766 109.681 259.281 112.236 260.777 114.223C261.99 115.869 263.896 116.863 265.941 116.918C266.64 116.934 267.231 116.307 267.937 116.47C268.819 116.675 269.203 117.511 269.986 117.87Z" fill="#2F2E41"/>
<path opacity="0.1" d="M339.381 171.535L351.509 165C351.509 165 380.989 235.206 373.899 254.624C366.809 274.043 339.567 314 339.567 314C339.567 314 317.923 309.519 320.162 305.038C322.401 300.556 336.955 271.802 338.075 268.068C339.194 264.333 346.658 240.06 343.299 237.446C339.941 234.832 333.41 174.149 333.41 174.149L339.381 171.535Z" fill="black"/>
<path d="M338.582 161L353.509 165.105C353.509 165.105 382.989 235.261 375.899 254.666C368.809 274.071 341.567 314 341.567 314C341.567 314 319.923 309.522 322.162 305.044C324.401 300.566 338.955 271.832 340.075 268.1C341.194 264.368 348.658 240.112 345.299 237.5C341.941 234.888 325.894 170.329 325.894 170.329L338.582 161Z" fill="#575A89"/>
<path d="M500 220C500 280.751 414.71 330 309.5 330C204.29 330 119 280.751 119 220" stroke="#3F3D56" stroke-width="2"/>
<path d="M466 331C423.488 354.051 368.018 368 307.34 368C249.161 368 195.771 355.177 154 333.803" stroke="#3F3D56" stroke-width="2"/>
<path d="M405 86C485.971 107.242 543.638 153.968 549 209" stroke="#3F3D56" stroke-width="2"/>
<path d="M76 173C89.6007 147.962 114.447 125.928 147 109" stroke="#3F3D56" stroke-width="2"/>
<path d="M243 442H398.006C428.665 390.333 428.665 338.667 398.006 287H243C285.867 338.667 285.867 390.333 243 442Z" fill="#F2F2F2"/>
<rect x="295" y="316" width="87" height="11" fill="#20C14D"/>
<rect x="288" y="349" width="116" height="4" fill="white"/>
<rect x="288" y="368" width="116" height="4" fill="white"/>
<path d="M178 337H22.9935C-7.66451 285.333 -7.66451 233.667 22.9935 182H178C135.133 233.667 135.133 285.333 178 337Z" fill="#F2F2F2"/>
<rect x="40" y="200" width="87" height="11" fill="#20C14D"/>
<rect x="21" y="231" width="116" height="4" fill="white"/>
<rect x="21" y="250" width="116" height="4" fill="white"/>
<rect x="21" y="269" width="116" height="4" fill="white"/>
<rect x="21" y="288" width="116" height="4" fill="white"/>
<path d="M431 265H586.006C616.665 213.333 616.665 161.667 586.006 110H431C473.867 161.667 473.867 213.333 431 265Z" fill="#F2F2F2"/>
<rect x="480" y="126" width="87" height="11" fill="#20C14D"/>
<rect x="471" y="156" width="116" height="4" fill="white"/>
</svg>
