<svg width="793" height="655" viewBox="0 0 793 655" fill="none" xmlns="http://www.w3.org/2000/svg">
<circle opacity="0.343424" cx="410.5" cy="337.5" r="317.5" fill="#FDFEFF"/>
<ellipse cx="158" cy="622.731" rx="158" ry="12" fill="#E6E6E6"/>
<path d="M120.772 205.419C148.269 193.724 182.517 201.134 215.963 206.277C216.274 200.049 220.047 192.469 216.095 188.124C211.294 182.845 211.736 177.299 214.625 171.72C222.013 157.455 211.428 142.277 200.741 129.656C195.855 123.899 188.516 120.819 180.985 121.364L161.188 122.778C151.323 123.483 142.931 130.237 140.135 139.724C135.408 146.153 132.878 152.565 134.471 158.943C127.39 163.782 126.2 169.622 129.382 176.207C132.08 180.353 132.051 184.389 129.259 188.313C125.593 193.315 122.784 198.894 120.949 204.819L120.772 205.419Z" fill="#2F2E41"/>
<path d="M774.209 559.963H213.791C203.413 559.963 195 551.55 195 541.172C398.151 517.562 597.485 517.562 793 541.172C793 551.55 784.587 559.963 774.209 559.963Z" fill="#2F2E41"/>
<path d="M793 542.277L195 541.172L264.306 424.556L264.638 424.004V166.996C264.637 160.696 267.14 154.654 271.595 150.199C276.049 145.744 282.092 143.242 288.392 143.242H696.292C702.592 143.242 708.634 145.744 713.089 150.199C717.544 154.654 720.047 160.696 720.046 166.996V425.772L793 542.277Z" fill="#3F3D56"/>
<path d="M287.85 159.823C283.579 159.827 280.118 163.289 280.113 167.56V401.896C280.118 406.168 283.579 409.629 287.85 409.634H700.15C704.421 409.629 707.882 406.168 707.887 401.896V167.56C707.882 163.289 704.421 159.827 700.15 159.823H287.85Z" fill="white"/>
<path d="M289.578 440.584C288.284 440.586 287.108 441.339 286.565 442.514L265.21 488.939C264.737 489.966 264.82 491.162 265.43 492.114C266.04 493.066 267.092 493.641 268.222 493.641H717.314C718.463 493.641 719.531 493.046 720.135 492.068C720.739 491.091 720.794 489.87 720.279 488.842L697.067 442.417C696.508 441.291 695.358 440.58 694.102 440.584H289.578Z" fill="#2F2E41"/>
<circle cx="492.342" cy="150.98" r="4.97412" fill="white"/>
<path d="M448.2 502.484C446.701 502.486 445.39 503.491 444.998 504.938L439.641 524.834C439.373 525.831 439.583 526.895 440.211 527.714C440.838 528.533 441.811 529.013 442.843 529.013H544.717C545.79 529.013 546.796 528.494 547.418 527.62C548.04 526.746 548.201 525.626 547.85 524.612L540.963 504.716C540.5 503.38 539.242 502.485 537.829 502.484L448.2 502.484Z" fill="#2F2E41"/>
<path d="M720.046 420.135V424.556H264.306L264.649 424.004V420.135H720.046Z" fill="#2F2E41"/>
<circle cx="707.335" cy="160.375" r="77.3752" fill="#20C14D"/>
<path fill-rule="evenodd" clip-rule="evenodd" d="M675.279 194.089H739.39C741.831 194.086 743.809 192.108 743.811 189.667V150.98C743.809 148.539 741.831 146.561 739.39 146.558H675.279C672.838 146.561 670.86 148.539 670.858 150.98V189.667C670.86 192.108 672.838 194.086 675.279 194.089ZM675.279 189.667V150.98L739.39 150.98L739.393 189.667H675.279Z" fill="white"/>
<path fill-rule="evenodd" clip-rule="evenodd" d="M687.438 150.98H727.231L727.231 133.294C727.231 120.484 718.863 111.187 707.335 111.187C695.806 111.187 687.438 120.484 687.438 133.294V150.98ZM722.81 146.558H691.86L691.86 133.294C691.86 122.881 698.223 115.608 707.335 115.608C716.446 115.608 722.81 122.881 722.81 133.294V146.558Z" fill="white"/>
<circle cx="707.335" cy="169.218" r="4.42144" fill="white"/>
<path fill-rule="evenodd" clip-rule="evenodd" d="M334.68 330.15H653.32C656.577 330.146 659.217 327.506 659.221 324.249V245.208C659.217 241.951 656.577 239.311 653.32 239.307H334.68C331.423 239.311 328.783 241.951 328.779 245.208V324.249C328.783 327.506 331.423 330.146 334.68 330.15ZM331.14 245.208C331.142 243.253 332.726 241.67 334.68 241.667L653.32 241.667C655.274 241.67 656.858 243.253 656.86 245.208V324.249C656.858 326.203 655.274 327.787 653.32 327.789H334.68C332.726 327.787 331.142 326.203 331.14 324.249V245.208Z" fill="#E6E6E6"/>
<circle cx="384.19" cy="281.695" r="24.0364" fill="#E6E6E6"/>
<path d="M439.703 265.671C438.27 265.669 436.945 266.432 436.228 267.672C435.511 268.913 435.511 270.442 436.228 271.682C436.945 272.923 438.27 273.686 439.703 273.683H628.561C630.773 273.683 632.567 271.89 632.567 269.677C632.567 267.465 630.773 265.671 628.561 265.671H439.703Z" fill="#E6E6E6"/>
<path d="M439.703 289.708C437.491 289.708 435.697 291.501 435.697 293.714C435.697 295.926 437.491 297.72 439.703 297.72H520.969C523.181 297.72 524.975 295.926 524.975 293.714C524.975 291.501 523.181 289.708 520.969 289.708H439.703Z" fill="#E6E6E6"/>
<path d="M263.522 291.328L204.619 322.644L203.873 296.547C223.099 293.338 241.39 287.75 258.303 278.653L264.463 263.433C265.829 260.059 268.871 257.654 272.47 257.105C276.068 256.555 279.689 257.942 282 260.755C285.448 264.952 285.05 271.104 281.091 274.824L263.522 291.328Z" fill="#FFB8B8"/>
<path d="M119.598 472.133C118.729 468.945 119.264 465.538 121.067 462.77L134.007 442.912C140.347 433.182 153.027 429.837 163.342 435.173C157.904 444.429 158.662 452.549 165.22 459.606C155.039 464.576 145.63 470.991 137.284 478.651C134.192 480.759 130.273 481.242 126.762 479.948C123.251 478.654 120.582 475.743 119.598 472.133Z" fill="#2F2E41"/>
<path d="M266.205 446.168C262.223 452.805 255.073 456.889 247.334 456.948L161.374 457.599L157.646 435.976L195.672 424.792L163.61 400.187L198.654 359.178L262.304 418.503C269.971 425.648 271.597 437.182 266.205 446.168Z" fill="#2F2E41"/>
<path d="M147.953 594.045H127.821C109.746 470.147 91.3474 345.903 145.716 299.53L209.838 309.968L201.636 364.398L165.847 405.406L147.953 594.045Z" fill="#2F2E41"/>
<path d="M165.649 622.112C162.462 622.981 159.054 622.446 156.286 620.643L134.427 617.705C124.697 611.365 121.351 598.685 126.686 588.37C135.943 593.808 144.064 593.049 151.12 586.491C156.106 596.558 164.321 595.944 172.167 604.426C174.274 607.517 174.758 611.437 173.464 614.948C172.17 618.458 169.259 621.127 165.649 622.112Z" fill="#2F2E41"/>
<path d="M195.672 216.767L158.391 207.82C164.583 195.146 165.093 181.044 162.119 166.066L187.47 165.32C188.264 183.946 190.667 201.347 195.672 216.767Z" fill="#FFB8B8"/>
<path d="M205.918 332.418C178.779 350.911 159.603 333.051 144.97 305.495C147.004 288.633 143.711 268.454 137.614 246.528C131.992 226.481 142.633 205.463 162.119 198.127L194.18 211.548C221.404 233.739 226.762 257.775 216.549 283.127L205.918 332.418Z" fill="#20C14D"/>
<path d="M127.821 235.408L97.9969 251.065L150.935 282.381L158.301 300.55C159.295 303.001 159.237 305.753 158.143 308.16C157.048 310.567 155.012 312.419 152.512 313.281C149.661 314.264 146.515 313.856 144.009 312.179C141.503 310.501 139.927 307.747 139.75 304.737L139.005 292.074L71.7216 269.87C67.1282 268.354 63.4873 264.81 61.8489 260.259C59.4249 253.525 61.8504 246.005 67.7516 241.956L121.856 204.838L127.821 235.408Z" fill="#FFB8B8"/>
<path d="M157.646 238.39C145.207 232.939 133.896 238.86 119.62 243.609L117.383 204.092C131.559 196.536 145.075 194.499 157.646 200.364L157.646 238.39Z" fill="#20C14D"/>
<circle cx="172.525" cy="161.092" r="23.8021" fill="#FFB8B8"/>
<path d="M201 158.089C177.434 160.397 159.477 156.543 148 145.569V136.731H199L201 158.089Z" fill="#2F2E41"/>
</svg>
