<svg width="635" height="635" viewBox="0 0 635 635" fill="none" xmlns="http://www.w3.org/2000/svg">
<circle opacity="0.343424" cx="317.5" cy="317.5" r="317.5" fill="#FDFEFF"/>
<path d="M397 359.795L315.579 263L152.143 264.493L53 360.993L55.0032 362.279H54.288V563H396.78V362.279L397 359.795Z" fill="#3F3D56"/>
<path d="M315.81 263L214 382.252V563H397V359.567L315.81 263Z" fill="#20C14D"/>
<rect x="288" y="463" width="37" height="33" fill="white"/>
<rect x="288" y="406" width="37" height="33" fill="white"/>
<rect x="122" y="454" width="37" height="33" fill="white"/>
<rect x="122" y="397" width="37" height="33" fill="white"/>
<rect x="22" y="563" width="591" height="2" fill="#3F3D56"/>
<path d="M523.2 539.72L526 554.12L512 557L514.1 539L523.2 539.72Z" fill="#A0616A"/>
<path d="M568 537.5L564.552 555H548L554.897 534L568 537.5Z" fill="#A0616A"/>
<path d="M583.19 416.233L586 435.138L582.487 476.449L579.677 491.853L567.735 542.266C567.735 542.266 554.387 542.266 552.28 536.664L555.792 507.957C555.792 507.957 558.602 484.851 557.9 482.05C557.197 479.25 546.66 434.438 546.66 434.438C546.66 434.438 531.205 505.156 529.097 511.458C526.99 517.759 524.18 545.066 524.18 545.066C524.18 545.066 512.237 547.167 511.535 545.066C510.832 542.966 510.13 493.253 510.13 485.551C510.13 477.849 511.535 473.648 511.535 472.248C511.535 470.847 506 404 506 404L583.19 416.233Z" fill="#2F2E41"/>
<path d="M555.502 551.964C555.502 551.964 558.955 552.661 561.026 551.964C563.098 551.268 561.026 547.089 561.026 547.089H568.622C568.622 547.089 576.909 565.893 580.362 567.286C583.815 568.679 594.864 584 581.743 584C573.647 583.895 565.746 581.481 558.955 577.036C558.955 577.036 557.573 570.768 551.358 570.071C545.143 569.375 541 561.714 541 561.714L549.977 545C549.977 545 552.049 552.661 555.502 551.964Z" fill="#2F2E41"/>
<path d="M521.296 550.536C521.296 550.536 519.895 553.304 518.494 551.92C517.093 550.536 515.693 547.076 515.693 547.076C515.693 547.076 511.49 545 510.79 547.076C510.089 549.152 507.288 560.224 505.887 561.607C504.486 562.991 489.778 577.523 504.486 580.291C519.195 583.059 521.996 576.831 521.996 576.831C521.996 576.831 519.895 573.371 524.097 571.987C528.3 570.603 529 565.759 529 565.759L526.198 545C526.198 545 523.397 551.92 521.296 550.536Z" fill="#2F2E41"/>
<path d="M599.399 366L601.508 402.514C601.508 402.514 611.347 425.687 597.994 424.984C584.64 424.282 593.074 401.812 593.074 401.812L580 369.223L599.399 366Z" fill="#A0616A"/>
<path d="M491.601 356L489.492 392.514C489.492 392.514 479.653 415.687 493.006 414.984C506.36 414.282 497.926 391.812 497.926 391.812L511 359.223L491.601 356Z" fill="#A0616A"/>
<circle cx="547" cy="258" r="18" fill="#A0616A"/>
<path d="M561.6 266C561.6 266 556.717 285.566 566.483 290.458C576.248 295.349 535.79 302.337 533 290.458L534.395 284.867C534.395 284.867 539.976 277.88 538.58 271.59L561.6 266Z" fill="#A0616A"/>
<path d="M550.745 289.836C550.745 289.836 538.584 290.973 534.797 283C534.797 283 506.343 284.9 500 310.992L510.572 378.689C510.572 378.689 499.295 398.434 500.705 400.55C500.705 400.55 493.657 420.295 558.498 421L586.689 419.59C587.07 415.581 586.833 411.538 585.984 407.602C584.575 401.255 576.822 356.828 576.822 356.828C576.822 356.828 597.966 323.685 595.851 318.749C593.737 313.812 590.351 294.349 563.148 286.451C563.148 286.451 562.726 290.541 550.745 289.836Z" fill="#E6E6E6"/>
<path d="M587.204 308L596.225 319.906C596.225 319.906 605.245 369.629 602.47 370.329C599.694 371.03 583.041 376.632 580.265 374.531C577.49 372.43 565 331.111 565 331.111L587.204 308Z" fill="#E6E6E6"/>
<path d="M512.082 304L499.846 311.706C499.846 311.706 481.852 360.741 486.89 362.842C491.929 364.944 520 363.543 520 363.543L512.082 304Z" fill="#E6E6E6"/>
<path d="M567.402 242.016C567.402 242.016 561.032 228.311 548.823 231.474C536.614 234.636 529.713 239.38 529.182 244.124C528.652 248.868 529.448 255.984 529.448 255.984C529.448 255.984 530.775 246.232 539.268 248.341C543.786 249.462 549.655 249.54 554.159 249.367C555.944 249.294 557.68 249.953 558.96 251.189C560.241 252.426 560.953 254.131 560.929 255.904L560.706 271C560.706 271 578.389 259.762 567.402 242.016Z" fill="#2F2E41"/>
<path fill-rule="evenodd" clip-rule="evenodd" d="M233.607 247H482.393C484.936 246.997 486.997 244.944 487 242.41V128.59C486.997 126.056 484.936 124.003 482.393 124H233.607C231.064 124.003 229.003 126.056 229 128.59V242.41C229.003 244.944 231.064 246.997 233.607 247ZM230.843 128.59C230.845 127.07 232.081 125.838 233.607 125.836H482.393C483.919 125.838 485.155 127.07 485.157 128.59V242.41C485.155 243.93 483.919 245.162 482.393 245.164H233.607C232.081 245.162 230.845 243.93 230.843 242.41V128.59Z" fill="#E6E6E6"/>
<circle cx="269.5" cy="164.5" r="18.5" fill="#20C14D"/>
<path d="M312.138 151C311.018 150.998 309.981 151.665 309.421 152.748C308.86 153.832 308.86 155.168 309.421 156.252C309.981 157.335 311.018 158.002 312.138 158H459.866C461.597 158 463 156.433 463 154.5C463 152.567 461.597 151 459.866 151H312.138Z" fill="#E6E6E6"/>
<path d="M312.145 171C311.022 170.998 309.984 171.665 309.422 172.748C308.859 173.832 308.859 175.168 309.422 176.252C309.984 177.335 311.022 178.002 312.145 178H375.855C376.978 178.002 378.016 177.335 378.578 176.252C379.141 175.168 379.141 173.832 378.578 172.748C378.016 171.665 376.978 170.998 375.855 171H312.145Z" fill="#E6E6E6"/>
<path d="M255.294 201C252.926 201 251 202.57 251 204.5C251 206.43 252.926 208 255.294 208H457.706C460.074 208 462 206.43 462 204.5C462 202.57 460.074 201 457.706 201H255.294Z" fill="#E6E6E6"/>
<path d="M255.294 219C252.926 219 251 220.57 251 222.5C251 224.43 252.926 226 255.294 226H457.706C460.074 226 462 224.43 462 222.5C462 220.57 460.074 219 457.706 219H255.294Z" fill="#E6E6E6"/>
<circle cx="437.5" cy="85.5" r="33.5" fill="#20C14D"/>
<path d="M437 139L426.5 121L416 103H437H458L447.5 121L437 139Z" fill="#20C14D"/>
<circle cx="437" cy="85" r="12" fill="white"/>
<ellipse cx="563" cy="258.5" rx="3" ry="3.5" fill="#A0616A"/>
</svg>
