<svg width="44" height="21" viewBox="0 0 44 21" fill="none" xmlns="http://www.w3.org/2000/svg">
<path d="M0.504131 11.6988C0.504646 11.6993 0.505074 11.6999 0.505676 11.7004L9.48648 20.5068C10.1593 21.1666 11.2475 21.1641 11.9172 20.5011C12.5869 19.8381 12.5843 18.7659 11.9115 18.1061L5.88175 12.1935L42.2813 12.1935C43.2305 12.1935 44 11.4353 44 10.5C44 9.56465 43.2305 8.80645 42.2813 8.80645L5.88184 8.80645L11.9114 2.89393C12.5842 2.23412 12.5868 1.16185 11.9171 0.498913C11.2474 -0.164196 10.1591 -0.166481 9.4864 0.493156L0.505592 9.29961C0.505077 9.30012 0.504646 9.30071 0.504044 9.30122C-0.169106 9.96323 -0.166954 11.039 0.504131 11.6988Z" fill="#fff"/>
</svg>
