<svg width="48" height="23" viewBox="0 0 48 23" fill="none" xmlns="http://www.w3.org/2000/svg">
<path d="M47.45 10.1871C47.4495 10.1865 47.449 10.1858 47.4484 10.1853L37.6511 0.540123C36.9171 -0.18243 35.73 -0.17974 34.9994 0.546429C34.2689 1.27251 34.2717 2.4469 35.0057 3.16954L41.5835 9.64516H1.875C0.839437 9.64516 0 10.4756 0 11.5C0 12.5244 0.839437 13.3548 1.875 13.3548H41.5834L35.0058 19.8305C34.2718 20.5531 34.269 21.7275 34.9995 22.4536C35.7301 23.1798 36.9173 23.1823 37.6512 22.4599L47.4484 12.8147C47.449 12.8142 47.4495 12.8135 47.4501 12.8129C48.1845 12.0879 48.1821 10.9097 47.45 10.1871Z" fill="#fff"/>
</svg>
